<svg id="Layer_1" data-name="Layer 1" xmlns="http://www.w3.org/2000/svg" viewBox="0 0 792.08 540.05"><defs><style>.cls-1{fill:#bdbdbd;}</style></defs><title>Contact Us page_preview</title><path class="cls-1" d="M269,409.16c-29.14-14.75-65.22-17.24-89-41.46a1.5,1.5,0,0,0-2.12,2.12c24.1,24.5,60.21,27,89.65,41.93,1.72,0.87,3.24-1.72,1.51-2.59h0Z"/><path class="cls-1" d="M177.62,367.15c-4.17-4.76-7.45-10.82-6.94-17.34a14.51,14.51,0,0,1,10.89-13.19c1.88-.44,1.08-3.34-0.8-2.89a17.35,17.35,0,0,0-12.89,14.33c-1.28,7.92,2.55,15.42,7.62,21.22,1.27,1.46,3.39-.67,2.12-2.12h0Z"/><path class="cls-1" d="M181.75,336.51a49.68,49.68,0,0,1,14.93,3.25c1.8,0.69,2.59-2.21.8-2.89a52.29,52.29,0,0,0-15.72-3.36c-1.93-.11-1.92,2.89,0,3h0Z"/><path class="cls-1" d="M196.23,340.45c4,3.41,8.79,5,13.72,6.73l19.57,6.69c1.83,0.63,2.62-2.27.8-2.89l-16-5.48c-5.5-1.88-11.44-3.35-16-7.17-1.47-1.24-3.6.87-2.12,2.12h0Z"/><path class="cls-1" d="M229.62,355.69c2.8,1.36,20.59,9.14,19.53,1.41-0.26-1.9-3.15-1.09-2.89.8-0.08-.61-6.69-1.59-7.56-1.84a47.84,47.84,0,0,1-7.56-3c-1.73-.84-3.25,1.75-1.51,2.59h0Z"/><path class="cls-1" d="M248.68,356.6c-1.63-6-6.68-9.43-12.07-12-8.87-4.26-18-8.1-26.93-12.13-1.75-.79-3.27,1.8-1.51,2.59l22.41,10.07c5.91,2.66,13.35,5.37,15.21,12.28a1.5,1.5,0,0,0,2.89-.8h0Z"/><path class="cls-1" d="M210.74,332.6a35.65,35.65,0,0,1-6.41-18.3c-0.12-1.92-3.12-1.93-3,0a38.66,38.66,0,0,0,6.82,19.82c1.09,1.58,3.69.08,2.59-1.51h0Z"/><path class="cls-1" d="M204.9,312.47a9.45,9.45,0,0,1,8.18-11c1.91-.17,1.93-3.17,0-3A12.5,12.5,0,0,0,202,313.26c0.38,1.89,3.27,1.09,2.89-.8h0Z"/><path class="cls-1" d="M215.11,302a62.23,62.23,0,0,0,26.65,6,1.5,1.5,0,0,0,0-3,58.6,58.6,0,0,1-25.13-5.57c-1.74-.81-3.26,1.77-1.51,2.59h0Z"/><path class="cls-1" d="M242,307.89a42.85,42.85,0,0,1,16.44,10.4,1.5,1.5,0,0,0,2.12-2.12A46.3,46.3,0,0,0,242.76,305c-1.83-.64-2.61,2.26-0.8,2.89h0Z"/><path class="cls-1" d="M242.6,304.85a30.6,30.6,0,0,1-10.88-12.66c-0.82-1.75-3.41-.22-2.59,1.51a33.47,33.47,0,0,0,12,13.73c1.61,1.07,3.12-1.53,1.51-2.59h0Z"/><path class="cls-1" d="M231.62,291A31.71,31.71,0,0,1,240,272.54c1.31-1.42-.81-3.54-2.12-2.12A35.14,35.14,0,0,0,228.62,291c-0.2,1.92,2.8,1.9,3,0h0Z"/><path class="cls-1" d="M242.37,273A20.38,20.38,0,0,1,265.79,281c1.06,1.6,3.66.1,2.59-1.51a23.44,23.44,0,0,0-26.82-9.44c-1.83.59-1,3.49,0.8,2.89h0Z"/><path class="cls-1" d="M266.72,281.32a82.19,82.19,0,0,0,20.14,12.59c1.75,0.77,3.28-1.82,1.51-2.59a79.56,79.56,0,0,1-19.53-12.12c-1.47-1.24-3.6.87-2.12,2.12h0Z"/><path class="cls-1" d="M257.13,273.27c7.7-2.42,12-13.59,20.69-12.48,1.91,0.25,1.89-2.76,0-3-9.78-1.26-13.29,10-21.48,12.59-1.84.58-1.05,3.47,0.8,2.89h0Z"/><path class="cls-1" d="M278.44,260.51a43.91,43.91,0,0,1,20,1.86c6.76,2.31,11.48,7.15,17.76,10.15,1.73,0.83,3.26-1.76,1.51-2.59-6.48-3.1-11.51-8.07-18.47-10.45a45.82,45.82,0,0,0-20.85-2c-1.89.25-1.91,3.25,0,3h0Z"/><path class="cls-1" d="M317,273.77a88.63,88.63,0,0,1,35.13,11c11,6.24,20.87,14.46,31,22,1.55,1.16,3-1.45,1.51-2.59-11-8.22-21.75-17.31-34-23.65A92.5,92.5,0,0,0,317,270.77c-1.92-.19-1.91,2.81,0,3h0Z"/><path class="cls-1" d="M266.53,412.34a31.73,31.73,0,0,0,19.59,17.05c1.85,0.57,2.64-2.32.8-2.89a28.83,28.83,0,0,1-17.8-15.67c-0.81-1.75-3.4-.23-2.59,1.51h0Z"/><path class="cls-1" d="M253.79,432a162.5,162.5,0,0,1,16.75,8.39c5.08,2.94,9.74,6.7,14.91,9.46,9.49,5.07,19.54.84,28.42-3.51,1.73-.85.21-3.44-1.51-2.59-4.9,2.41-10,4.84-15.48,5.38-5.94.58-10.28-2-15-5.14a163.43,163.43,0,0,0-26.57-14.57c-1.75-.76-3.28,1.82-1.51,2.59h0Z"/><path class="cls-1" d="M314.61,447.74c5.86-3.45,12.44-3.55,19-4.14a61.58,61.58,0,0,0,15.16-3.5c13.24-4.63,27-3.72,40.63-1.47,1.89,0.31,2.7-2.58.8-2.89-13.49-2.23-27.49-3.41-40.7.95a81.56,81.56,0,0,1-19.9,4.23c-5.82.46-11.41,1.23-16.53,4.24a1.5,1.5,0,0,0,1.51,2.59h0Z"/><path class="cls-1" d="M182.42,346.5a12.7,12.7,0,0,0-5.75,6.6c-0.71,1.79,2.19,2.57,2.89.8a9.51,9.51,0,0,1,4.37-4.81c1.7-.92.18-3.51-1.51-2.59h0Z"/><path class="cls-1" d="M301.09,261.09c6-6.43,9.12-15.12,14.18-22.28a106.3,106.3,0,0,1,19.54-20.76c1.49-1.22-.64-3.34-2.12-2.12a109.56,109.56,0,0,0-18.06,18.69C308.87,242.26,305.46,252,299,259c-1.31,1.41.8,3.54,2.12,2.12h0Z"/><path class="cls-1" d="M331.78,219.75a99.24,99.24,0,0,1,29.48-30c1.61-1.06.11-3.66-1.51-2.59a102.86,102.86,0,0,0-30.56,31.11c-1,1.64,1.56,3.14,2.59,1.51h0Z"/><path class="cls-1" d="M360.74,190a53.88,53.88,0,0,1,25.35-19.07c1.8-.65,1-3.55-0.8-2.89a57.39,57.39,0,0,0-27.14,20.45c-1.14,1.56,1.46,3.06,2.59,1.51h0Z"/><path class="cls-1" d="M386.76,170c13-8.59,27.22-14.57,41.79-20.08a160.12,160.12,0,0,1,47.88-10.38c1.92-.11,1.93-3.11,0-3A162.82,162.82,0,0,0,427.75,147c-14.81,5.61-29.23,11.65-42.51,20.39-1.61,1.06-.1,3.66,1.51,2.59h0Z"/><path class="cls-1" d="M476,139.66a18,18,0,0,1,11,8.74c0.94,1.69,3.53.18,2.59-1.51a21.07,21.07,0,0,0-12.84-10.11,1.5,1.5,0,0,0-.8,2.89h0Z"/><path class="cls-1" d="M487.71,149.33a33.47,33.47,0,0,1-.55,15.94,1.5,1.5,0,0,0,2.89.8,36.91,36.91,0,0,0,.55-17.53c-0.39-1.89-3.28-1.09-2.89.8h0Z"/><path class="cls-1" d="M488.48,165.34c-12.94,1.67-26.07,3.33-38.3,8.1-12,4.67-23.68,15.1-37.28,13.06-1.89-.28-2.7,2.61-0.8,2.89,12.28,1.85,22.4-5.22,32.92-10.41,13.55-6.69,28.65-8.73,43.46-10.64,1.89-.24,1.91-3.25,0-3h0Z"/><path class="cls-1" d="M486.56,168.14c2.78,3.34,7.09,5.54,9.41,9.22,3.82,6.09-.13,14.23-2,20.46-0.55,1.86,2.35,2.65,2.89.8,1.83-6.19,5.45-14,2.94-20.49-2-5.26-7.68-7.93-11.14-12.11-1.23-1.49-3.35.65-2.12,2.12h0Z"/><path class="cls-1" d="M495.75,198a102.39,102.39,0,0,0-59.67,19.27c-1.55,1.12-.06,3.72,1.51,2.59A99.63,99.63,0,0,1,495.75,201a1.5,1.5,0,0,0,0-3h0Z"/><path class="cls-1" d="M495.24,201.26c10.49,3.88,6.3,16.33,1.36,22.86-1.17,1.54,1.44,3,2.59,1.51,6.34-8.36,9.2-22.7-3.15-27.26-1.81-.67-2.6,2.23-0.8,2.89h0Z"/><path class="cls-1" d="M496.43,223.73l-34.7,15c-8.47,3.67-20,6.49-25.28,14.72-1,1.63,1.55,3.14,2.59,1.51,2.85-4.47,7.65-6.48,12.33-8.51l15.52-6.72,31-13.44c1.77-.76.24-3.35-1.51-2.59h0Z"/><path class="cls-1" d="M497.86,226.34c5.35,12.17-1.36,33.77-16.78,34.06-1.93,0-1.93,3,0,3,17.92-.34,25.64-24.32,19.37-38.58-0.78-1.76-3.36-.24-2.59,1.51h0Z"/><path class="cls-1" d="M480.1,261.28c-16.21,4.25-31.14,9.14-43.53,20.87-3.6,3.41-7.21,6.62-12,8.21-4.3,1.42-8.89,1.75-13.27,2.83-8.89,2.17-17.13,6.33-25.26,10.42-1.73.87-.21,3.46,1.51,2.59,8.45-4.25,17-8.5,26.3-10.52,8-1.73,14.85-2.65,21.26-8.11,6.67-5.67,12.41-11.33,20.47-15.1s16.74-6,25.33-8.29a1.5,1.5,0,0,0-.8-2.89h0Z"/><path class="cls-1" d="M495.33,254.6c1.14,4.15,3.59,7.26,6.37,10.46,4,4.58,8,9.11,12,13.67,7.86,8.92,16.44,17.57,23.06,27.47,1.07,1.6,3.67.1,2.59-1.51-5.73-8.56-12.94-16.05-19.73-23.76L508.9,268.7c-4-4.51-9-8.95-10.67-14.9a1.5,1.5,0,0,0-2.89.8h0Z"/><path class="cls-1" d="M536.28,306c1,3.32,3.16,5.36,5.76,7.54a52.85,52.85,0,0,1,9.58,10.26,50.91,50.91,0,0,1,9,26.43c0.1,1.92,3.1,1.93,3,0a54.28,54.28,0,0,0-6.95-24.06,53.27,53.27,0,0,0-7-9.56c-3.26-3.56-9.12-6.62-10.51-11.41a1.5,1.5,0,0,0-2.89.8h0Z"/><path class="cls-1" d="M544.7,339.54c2.76,20.73,7.67,42.42,5.29,63.37-0.22,1.92,2.78,1.9,3,0,2.38-20.95-2.53-42.65-5.29-63.37-0.25-1.89-3.25-1.91-3,0h0Z"/><path class="cls-1" d="M550.19,403.62c0.7,9.69-.87,19.3-2.09,28.89-1.34,10.52-2.62,21-5.55,31.26a1.5,1.5,0,0,0,2.89.8c2.84-9.91,4.13-20.11,5.43-30.31s3.06-20.37,2.32-30.64c-0.14-1.91-3.14-1.93-3,0h0Z"/><path class="cls-1" d="M544.08,463.27c-4.56,5.81-8.66,13.67-16.78,14.59-9.73,1.1-16.59-6.86-19.22-15.36-0.57-1.84-3.47-1.05-2.89.8,2.69,8.72,9,16.5,18.54,17.57,11.07,1.24,16.53-7.88,22.48-15.47,1.18-1.5-.93-3.64-2.12-2.12h0Z"/><path class="cls-1" d="M505.61,459.81c5.41-24.27,3.76-48.37-1.35-72.53-0.4-1.89-3.29-1.09-2.89.8,5,23.66,6.64,47.17,1.35,70.94-0.42,1.88,2.47,2.68,2.89.8h0Z"/><path class="cls-1" d="M501.36,385.57a7.58,7.58,0,0,0-5,3.2,1.51,1.51,0,0,0,.54,2.05,1.53,1.53,0,0,0,2.05-.54,4.7,4.7,0,0,1,3.24-1.82,1.51,1.51,0,0,0,1-1.85,1.54,1.54,0,0,0-1.85-1h0Z"/><path class="cls-1" d="M497.33,393.82c4.74,23-2.53,46.5,1.5,69.63,0.33,1.9,3.22,1.09,2.89-.8-4-23.12,3.25-46.55-1.5-69.63-0.39-1.89-3.28-1.09-2.89.8h0Z"/><path class="cls-1" d="M498.8,463.61c0.9,9.22-8.41,13.55-16.34,11.93-7-1.43-12.6-6.32-17.81-10.94-1.44-1.28-3.57.84-2.12,2.12,7.2,6.39,15.67,13.29,26,12.09,7.68-.9,14.1-7.2,13.31-15.21-0.19-1.9-3.19-1.92-3,0h0Z"/><path class="cls-1" d="M463.55,464.3a115.63,115.63,0,0,1-5.9-48.53c1.18-12.73,3.69-26.2-3.26-37.78a1.5,1.5,0,0,0-2.59,1.51c7.58,12.62,3.15,27.8,2.46,41.53a117.2,117.2,0,0,0,6.4,44.06c0.63,1.81,3.52,1,2.89-.8h0Z"/><path class="cls-1" d="M414.53,372.34A67.4,67.4,0,0,1,421,399.76c0.15,8.45-1.33,16.82-1.49,25.26-0.23,12,2.86,24.89,13.55,31.76,1.63,1,3.14-1.55,1.51-2.59-13.52-8.69-12.56-26.39-11.33-40.39,1.32-15.12.36-29-6.14-43-0.82-1.75-3.4-.23-2.59,1.51h0Z"/><path class="cls-1" d="M433.09,457.57a28.3,28.3,0,0,0,26.5,9.31c1.9-.33,1.09-3.22-0.8-2.89a25.23,25.23,0,0,1-23.58-8.54c-1.27-1.46-3.38.67-2.12,2.12h0Z"/><path class="cls-1" d="M384.61,307.31a139.35,139.35,0,0,0,.47,77.34c0.55,1.85,3.44,1.06,2.89-.8a136.31,136.31,0,0,1-.47-75.75,1.5,1.5,0,0,0-2.89-.8h0Z"/><path class="cls-1" d="M386,385c1,17.25,2.39,34.71,11.23,50a70.23,70.23,0,0,0,14.44,17.6c4.25,3.72,9.94,8,15.58,4.6a1.5,1.5,0,0,0-1.51-2.59c-6.25,3.73-14.5-6.19-18.19-10.37a67.73,67.73,0,0,1-10.68-16.46c-6.15-13.38-7-28.28-7.87-42.76-0.11-1.92-3.11-1.93-3,0h0Z"/><path class="cls-1" d="M549.48,351.72a528.52,528.52,0,0,0,57.18,9.22c20,2.09,40.19,2.53,59.92,6.66,35.78,7.49,69.13,24.13,105.74,28,1.92,0.2,1.9-2.8,0-3-36.91-3.91-70.54-21-106.7-28.26-18.49-3.7-37.37-4.26-56.08-6.12a520.86,520.86,0,0,1-59.24-9.4c-1.88-.41-2.69,2.48-0.8,2.89h0Z"/><path class="cls-1" d="M544.26,469.13c23,10.21,46,20.46,70,28.05,11.2,3.54,22.59,6.06,34,8.78s22.72,6.27,31.47,14.4c1.41,1.31,3.54-.8,2.12-2.12-16.31-15.17-41-16.25-61.43-22.31-25.68-7.62-50.22-18.53-74.65-29.4-1.75-.78-3.28,1.81-1.51,2.59h0Z"/><path class="cls-1" d="M171.74,366.17c-8.17,13-22.49,20.93-35,29.23Q116,409.2,94.85,422.47,52.61,449,9.07,473.41l2.2,0.9-1.41-5.08A1.5,1.5,0,0,0,7,470l1.41,5.08a1.52,1.52,0,0,0,2.2.9q45.18-25.35,89-53,21.91-13.82,43.44-28.21c11.49-7.68,23.76-15.15,31.27-27.12,1-1.64-1.57-3.15-2.59-1.51h0Z"/><path class="cls-1" d="M266.41,409.74c-4.53,12.38-14.5,21.15-24.86,28.77s-20.67,14.64-30.27,23c-21.77,19-40.68,41.15-63.64,58.81-1.51,1.16,0,3.77,1.51,2.59,23.64-18.18,43-41,65.56-60.42,10.43-9,22-16.33,32.81-24.79,9.37-7.33,17.62-15.84,21.78-27.19,0.66-1.82-2.23-2.6-2.89-.8h0Z"/><path class="cls-1" d="M266.39,344.75a8.94,8.94,0,0,0,9.25-7.43c0.27-1.89-2.62-2.7-2.89-.8a6,6,0,0,1-6.35,5.22c-1.93-.12-1.92,2.88,0,3h0Z"/><path class="cls-1" d="M279.48,307.68a7.75,7.75,0,0,0,5.75-5,1.51,1.51,0,0,0-1-1.85,1.53,1.53,0,0,0-1.85,1,4.75,4.75,0,0,1-3.65,2.89c-1.89.36-1.09,3.25,0.8,2.89h0Z"/><path class="cls-1" d="M302.42,284.49a10.54,10.54,0,0,0,8.57-4.81c1.07-1.62-1.53-3.12-2.59-1.51a7.39,7.39,0,0,1-6,3.33c-1.93.06-1.93,3.06,0,3h0Z"/><path class="cls-1" d="M240.53,386.27a7.75,7.75,0,0,0,3.42-6.66c-0.07-1.93-3.07-1.93-3,0a4.67,4.67,0,0,1-1.93,4.06c-1.57,1.1-.07,3.7,1.51,2.59h0Z"/><path class="cls-1" d="M442.29,153.22a9.11,9.11,0,0,0,4.78,9.56c1.72,0.87,3.24-1.71,1.51-2.59a6.08,6.08,0,0,1-3.4-6.17c0.27-1.89-2.62-2.7-2.89-.8h0Z"/><path class="cls-1" d="M472.22,181.62a15.69,15.69,0,0,0,2.86,9.46c1.1,1.57,3.71.07,2.59-1.51a12.94,12.94,0,0,1-2.45-7.94c0-1.93-3-1.93-3,0h0Z"/><path class="cls-1" d="M477.74,214.59a7.24,7.24,0,0,0,3.25,8.33,1.5,1.5,0,0,0,1.51-2.59,4.21,4.21,0,0,1-1.87-4.95c0.58-1.85-2.32-2.64-2.89-.8h0Z"/><path class="cls-1" d="M470.29,251.36l2,6c0.6,1.82,3.5,1,2.89-.8l-2-6c-0.6-1.82-3.5-1-2.89.8h0Z"/><path class="cls-1" d="M393.7,405.52a14.18,14.18,0,0,0,11.18,1.77c1.87-.47,1.08-3.36-0.8-2.89a11.11,11.11,0,0,1-8.87-1.47c-1.63-1-3.14,1.56-1.51,2.59h0Z"/><path class="cls-1" d="M429.66,430.91a16.67,16.67,0,0,0,10.09,2.19c1.9-.19,1.92-3.2,0-3a13.92,13.92,0,0,1-8.58-1.78,1.5,1.5,0,0,0-1.51,2.59h0Z"/><path class="cls-1" d="M472.14,439.69l4.66-1.34a1.5,1.5,0,0,0-.8-2.89l-4.66,1.34a1.5,1.5,0,0,0,.8,2.89h0Z"/><path class="cls-1" d="M523.09,424.42a24.55,24.55,0,0,0,11.07-1.34c1.8-.65,1-3.55-0.8-2.89a22.58,22.58,0,0,1-10.27,1.23c-1.92-.21-1.9,2.8,0,3h0Z"/><path class="cls-1" d="M471.29,334.25a37.3,37.3,0,0,1,6.89,18.35c0.18,1.91,3.18,1.92,3,0a40.28,40.28,0,0,0-7.3-19.86c-1.11-1.56-3.71-.06-2.59,1.51h0Z"/><path class="cls-1" d="M435.54,335.48a18,18,0,0,1,5.16,17.67c-0.47,1.87,2.43,2.67,2.89.8a21.12,21.12,0,0,0-5.93-20.59c-1.4-1.33-3.52.78-2.12,2.12h0Z"/><path class="cls-1" d="M393.31,332.72a20.44,20.44,0,0,1,4.69,12.9,1.5,1.5,0,0,0,3,0,23.77,23.77,0,0,0-5.57-15c-1.23-1.49-3.34.64-2.12,2.12h0Z"/><path class="cls-1" d="M516.31,334.73a15.38,15.38,0,0,1,4.61,13.48c-0.29,1.89,2.6,2.7,2.89.8a18.53,18.53,0,0,0-5.38-16.4,1.5,1.5,0,0,0-2.12,2.12h0Z"/><path class="cls-1" d="M217.36,313.7a8.66,8.66,0,0,1,4,1.65,1.55,1.55,0,0,0,2.12,0,1.51,1.51,0,0,0,0-2.12,11.63,11.63,0,0,0-5.32-2.42,1.55,1.55,0,0,0-1.85,1,1.51,1.51,0,0,0,1,1.85h0Z"/><path class="cls-1" d="M243,290.89a12.63,12.63,0,0,0,6.74,2.28c1.93,0.1,1.92-2.9,0-3a9.74,9.74,0,0,1-5.23-1.87c-1.58-1.12-3.08,1.48-1.51,2.59h0Z"/><path class="cls-1" d="M275,278.25l1.33,0.67a1.54,1.54,0,0,0,2.05-.54,1.51,1.51,0,0,0-.54-2.05l-1.33-.67a1.54,1.54,0,0,0-2.05.54,1.51,1.51,0,0,0,.54,2.05h0Z"/><path class="cls-1" d="M453.71,142.9a407.89,407.89,0,0,0-25.24-67.47c-5.1-10.63-11-20.81-16.41-31.26-5.89-11.35-10.64-23.38-9-36.39,0.24-1.91-2.76-1.89-3,0-3,23.42,13.54,44.36,23.4,64.21a402.85,402.85,0,0,1,27.36,71.71,1.5,1.5,0,0,0,2.89-.8h0Z"/><path class="cls-1" d="M366.64,185.05c-18.2-42.51-35.25-84.93-46.28-130-0.46-1.87-3.35-1.08-2.89.8,11.09,45.27,28.28,87.93,46.58,130.67,0.76,1.77,3.34.24,2.59-1.51h0Z"/></svg>